<svg width="1080" height="1080" viewBox="0 0 1080 1080" fill="none" xmlns="http://www.w3.org/2000/svg">
<rect width="1080" height="1080" fill="black"/>
<path d="M355.069 918V883.728H380.797V918H376.525V887.52H359.389V918H355.069ZM418.882 918L414.754 907.392H401.17L397.09 918H392.722L406.114 883.584H410.002L423.346 918H418.882ZM409.618 893.184C409.522 892.928 409.362 892.464 409.138 891.792C408.914 891.12 408.69 890.432 408.466 889.728C408.274 888.992 408.114 888.432 407.986 888.048C407.826 888.688 407.65 889.344 407.458 890.016C407.298 890.656 407.122 891.248 406.93 891.792C406.77 892.336 406.626 892.8 406.498 893.184L402.61 903.552H413.458L409.618 893.184ZM450.354 918L439.074 887.952H438.882C438.946 888.592 438.994 889.408 439.026 890.4C439.09 891.392 439.138 892.48 439.17 893.664C439.202 894.816 439.218 896 439.218 897.216V918H435.234V883.728H441.618L452.178 911.808H452.37L463.122 883.728H469.458V918H465.186V896.928C465.186 895.808 465.202 894.704 465.234 893.616C465.266 892.496 465.314 891.456 465.378 890.496C465.442 889.504 465.49 888.672 465.522 888H465.33L453.906 918H450.354ZM485.693 888.096C484.861 888 484.237 887.648 483.821 887.04C483.405 886.432 483.197 885.76 483.197 885.024C483.197 884.256 483.453 883.568 483.965 882.96C484.509 882.352 485.261 882.048 486.221 882.048C486.605 882.048 486.989 882.112 487.373 882.24C487.789 882.368 488.157 882.608 488.477 882.96C488.829 883.312 489.117 883.792 489.341 884.4C489.565 884.976 489.677 885.712 489.677 886.608C489.677 888.336 489.181 889.92 488.189 891.36C487.197 892.8 485.933 893.936 484.397 894.768L483.005 892.848C483.837 892.4 484.573 891.808 485.213 891.072C485.885 890.304 486.333 889.36 486.557 888.24L485.693 888.096ZM513.298 903.792L504.418 918H499.378L508.978 903.024C507.762 902.608 506.61 902.032 505.522 901.296C504.466 900.56 503.602 899.552 502.93 898.272C502.258 896.992 501.922 895.344 501.922 893.328C501.922 890.224 502.994 887.856 505.138 886.224C507.282 884.56 510.482 883.728 514.738 883.728H524.338V918H520.018V903.792H513.298ZM514.834 887.424C513.01 887.424 511.474 887.632 510.226 888.048C508.978 888.464 508.018 889.12 507.346 890.016C506.706 890.912 506.386 892.08 506.386 893.52C506.386 895.632 507.09 897.264 508.498 898.416C509.906 899.568 512.082 900.144 515.026 900.144H520.018V887.424H514.834ZM551.682 918H547.362V887.52H536.658V883.728H562.338V887.52H551.682V918ZM600.914 918H596.594V902.016H579.026V918H574.706V883.728H579.026V898.224H596.594V883.728H600.914V918ZM617.532 883.728H621.564V902.544C621.564 903.344 621.548 904.224 621.516 905.184C621.516 906.112 621.5 907.04 621.468 907.968C621.436 908.896 621.388 909.728 621.324 910.464C621.292 911.168 621.26 911.712 621.228 912.096H621.42L640.284 883.728H645.084V918H641.052V899.376C641.052 898.512 641.068 897.584 641.1 896.592C641.132 895.568 641.164 894.592 641.196 893.664C641.26 892.704 641.308 891.856 641.34 891.12C641.372 890.384 641.404 889.84 641.436 889.488H641.244L622.332 918H617.532V883.728ZM686.536 918H681.352L665.848 900.624V918H661.528V883.728H665.848V900.336L680.968 883.728H685.864L670.984 900.384L686.536 918ZM698.448 883.728H702.48V902.544C702.48 903.344 702.464 904.224 702.432 905.184C702.432 906.112 702.416 907.04 702.384 907.968C702.352 908.896 702.304 909.728 702.24 910.464C702.208 911.168 702.176 911.712 702.144 912.096H702.336L721.2 883.728H726V918H721.968V899.376C721.968 898.512 721.984 897.584 722.016 896.592C722.048 895.568 722.08 894.592 722.112 893.664C722.176 892.704 722.224 891.856 722.256 891.12C722.288 890.384 722.32 889.84 722.352 889.488H722.16L703.248 918H698.448V883.728Z" fill="url(#paint0_linear_17_2)"/>
<path d="M217.826 611H245.226V686.4C245.226 696.8 247.292 704.733 251.426 710.2C255.692 715.533 262.226 718.2 271.026 718.2C279.692 718.2 285.959 715.467 289.826 710C293.692 704.533 295.626 697.467 295.626 688.8V611H323.026V686.8C323.026 704.4 318.626 717.533 309.826 726.2C301.159 734.867 288.226 739.2 271.026 739.2C254.492 739.2 241.492 734.867 232.026 726.2C222.559 717.533 217.826 704.067 217.826 685.8V611ZM380.452 611H407.852V715.4H458.652V737H380.452V611ZM573.991 611V632.6H538.391V737H510.991V632.6H476.191V611H573.991ZM619.554 611H667.354C674.421 611 680.621 612.067 685.954 614.2C691.421 616.2 695.954 619 699.554 622.6C703.154 626.067 705.821 630.2 707.554 635C709.421 639.667 710.354 644.733 710.354 650.2C710.354 655.267 709.554 659.8 707.954 663.8C706.487 667.667 704.554 671.067 702.154 674C699.887 676.8 697.287 679.2 694.354 681.2C691.554 683.067 688.821 684.6 686.154 685.8L716.954 737H685.554L661.354 690.6H646.754V737H619.554V611ZM646.754 669.6H657.554C664.754 669.6 670.621 668.133 675.154 665.2C679.821 662.267 682.154 657.4 682.154 650.6C682.154 644.6 680.287 640 676.554 636.8C672.954 633.467 667.621 631.8 660.554 631.8H646.754V669.6ZM797.012 687.8H829.012L823.212 671C821.345 665.8 819.612 660.6 818.012 655.4C816.412 650.067 814.878 644.733 813.412 639.4H813.012C811.545 644.467 809.945 649.667 808.212 655C806.478 660.2 804.678 665.533 802.812 671L797.012 687.8ZM799.412 611H827.812L874.412 737H845.412L835.612 708H790.812L781.012 737H752.412L799.412 611Z" fill="white"/>
<path d="M333.628 772.208C338.321 772.208 342.545 772.549 346.3 773.232C350.14 773.915 353.681 775.109 356.924 776.816L354.108 786.032C350.95 784.581 347.836 783.515 344.764 782.832C341.777 782.149 338.534 781.808 335.036 781.808C331.281 781.808 327.697 782.363 324.284 783.472C320.87 784.581 317.841 786.416 315.196 788.976C312.636 791.451 310.588 794.736 309.052 798.832C307.516 802.843 306.748 807.835 306.748 813.808C306.748 824.133 309.094 831.984 313.788 837.36C318.481 842.736 325.094 845.424 333.628 845.424C336.87 845.424 339.644 845.253 341.948 844.912C344.337 844.571 346.641 843.973 348.86 843.12V820.72H333.628V811.504H359.868V850.416C356.454 851.781 352.657 852.933 348.476 853.872C344.294 854.725 339.345 855.152 333.628 855.152C328.081 855.152 322.876 854.256 318.012 852.464C313.233 850.672 309.052 848.027 305.468 844.528C301.884 841.029 299.068 836.72 297.02 831.6C294.972 826.48 293.948 820.549 293.948 813.808C293.948 807.067 294.929 801.093 296.892 795.888C298.94 790.683 301.713 786.331 305.212 782.832C308.71 779.333 312.892 776.688 317.756 774.896C322.62 773.104 327.91 772.208 333.628 772.208ZM396.752 773.36H422.993C427.174 773.36 430.843 773.957 434 775.152C437.243 776.347 439.931 778.011 442.064 780.144C444.198 782.277 445.819 784.837 446.929 787.824C448.038 790.725 448.592 793.925 448.592 797.424C448.592 800.496 448.123 803.269 447.185 805.744C446.246 808.219 445.009 810.395 443.472 812.272C441.936 814.064 440.144 815.643 438.097 817.008C436.134 818.288 434.128 819.355 432.08 820.208L453.328 854H440.145L421.072 822.384H407.888V854H396.752V773.36ZM407.888 812.784H417.616C420.262 812.784 422.694 812.528 424.912 812.016C427.216 811.419 429.179 810.565 430.8 809.456C432.507 808.261 433.83 806.725 434.768 804.848C435.792 802.971 436.305 800.709 436.305 798.064C436.305 792.859 434.854 789.019 431.952 786.544C429.137 784.069 424.998 782.832 419.536 782.832H407.888V812.784ZM507.23 773.36H517.726L549.854 854H537.566L528.734 831.6H495.582L486.878 854H474.718L507.23 773.36ZM498.782 822.256H525.278L519.902 808.304C518.452 804.635 517.129 801.093 515.934 797.68C514.74 794.267 513.545 790.768 512.35 787.184H512.094C510.9 790.768 509.662 794.224 508.382 797.552C507.102 800.88 505.737 804.464 504.286 808.304L498.782 822.256ZM579.403 773.36H589.643L626.379 824.432C627.744 826.309 629.067 828.229 630.347 830.192C631.627 832.155 632.779 834.075 633.803 835.952H634.059C633.888 832.965 633.76 829.979 633.675 826.992C633.589 824.005 633.547 821.019 633.547 818.032V773.36H645.067V854H634.827L598.475 803.568C597.195 801.776 595.872 799.771 594.507 797.552C593.141 795.248 591.861 792.987 590.667 790.768H590.411C590.581 794.352 590.709 797.936 590.795 801.52C590.88 805.104 590.923 808.688 590.923 812.272V854H579.403V773.36ZM696.378 773.36V854H684.602V773.36H696.378ZM788.664 773.36V783.344H763.448V854H751.672V783.344H726.968V773.36H788.664Z" fill="url(#paint1_linear_17_2)"/>
<ellipse cx="551.5" cy="329.5" rx="191.5" ry="188.5" fill="white"/>
<path d="M561 581L545.5 507.5L576 435.5L641.5 454.5L637.5 509.5L630 564.5L617.5 588.5L561 581Z" fill="white"/>
<path d="M581 570C582.916 573.967 585 582.5 585 582.5L569.5 585C565.833 580.5 558.1 570.5 556.5 566.5C554.9 562.5 552.833 538.5 552 527L548.5 488.5C548.5 488.5 553.909 493.158 556.5 495.5C560.457 499.076 561.197 501.328 562.5 506.5C564.409 514.074 562.147 520.236 563 528C563.807 535.347 564.173 538.484 566.5 545.5C568.235 550.732 569.5 553 571.5 558C573.554 563.134 578.596 565.02 581 570Z" fill="#BDBDBC" stroke="#BDBDBC"/>
<path d="M652 367.5C656.5 368 658.5 369.5 658.5 369.5C657.5 371.333 656.2 377 655 377C653.8 377 640.5 375.333 634 374.5L624.5 372.5L606.5 367.5L612 365L619.5 366.5C619.5 366.5 625.164 367.996 629 368C631.987 368.004 633.579 368.126 636.5 367.5C643.5 366 646.566 366.896 652 367.5Z" fill="#BDBDBC" stroke="#BDBDBC"/>
<path d="M579.5 391C582.127 385.277 587.5 377 587.5 377C582.667 377 573 377.2 573 378C573 379 555 387 553.5 388.5C552 390 545.5 403.5 544.5 407.5C543.5 411.5 544.5 444 544.5 446.5C544.5 449 569 476.5 570.5 476.5C571.7 476.5 583.833 474.5 589.5 474.5C589.5 474.5 579.447 468.654 575.5 462C570.354 453.324 569.532 447.074 569 437C568.459 426.741 570.534 420.973 573 411C574.972 403.028 576.075 398.464 579.5 391Z" fill="#BDBDBC" stroke="#BDBDBC"/>
<path d="M626.5 444.5C626.5 444.5 629.09 442.628 631 442C633.419 441.205 635.014 440.951 637.5 441.5C639.889 442.027 640.558 444.351 643 444.5C645.534 444.655 647.5 444.5 649 442C646.68 441.304 644.802 440.668 643 439.909C640.919 439.032 638.94 437.99 636.5 436.5C631.997 433.75 631 434.5 627.5 430.5C624 426.5 627.38 436.571 625.5 441.5C624.052 445.296 619.5 450 619.5 450C622.5 447 626.5 444.5 626.5 444.5Z" fill="black"/>
<path d="M615.5 454C617.448 451.847 618.551 450.949 619.5 450C619.5 450 617.337 447.323 614 446C610.218 444.5 605.5 444.5 605.5 444.5L612.868 451.5L615.5 454Z" fill="black"/>
<path d="M605.5 465.5C605.5 465.5 606.945 463.791 608.917 461.5C606.5 458.5 604.54 457.836 601 457.5C599.24 457.333 596.5 457.5 596.5 457.5C596.5 457.5 598 459.542 599 461.5C599.31 462.107 599.539 462.783 599.702 463.5C600.788 468.263 599 474.831 599 474.831C601.095 472.179 602.49 468.878 605.5 465.5Z" fill="black"/>
<path d="M693 368C703.173 354.171 712.559 346.037 713 329.5C713 329.5 707.977 333.661 702.082 337.5C702.082 337.5 704 341 701.5 348.5C699 356 693 368 693 368Z" fill="black"/>
<path d="M619.5 450C618.551 450.949 617.448 451.847 615.5 454C613.393 456.329 610.891 459.206 608.917 461.5C606.945 463.791 605.5 465.5 605.5 465.5C602.49 468.878 601.095 472.179 599 474.831C599 474.831 602.732 478.818 603 481.5C603.5 486.5 599.5 498.577 599.5 508C599.5 508.5 607.5 480.5 607.5 480.5C607.5 480.5 608.043 477.258 611 474.831C612.589 473.527 613.948 472.883 616 473C618.223 473.127 619 474 620 475C621 476 621.171 478.28 621 480.5C620.5 487 618.728 492.225 617 500C615.343 507.455 615.632 508.5 614.5 513.5C614.156 515.02 612.828 522.528 614 521.5C614.881 520.727 615.5 519.5 615.5 519.5L621 495L623 488.5L624 481L625.5 472L624.5 460.5L619.5 450Z" fill="black"/>
<path d="M586 480.5C572 481.5 569.773 465.809 558 468C547.652 469.926 537.5 485.5 537.5 485.5L548 527.5H556.5C556.5 527.5 556.218 523.826 556.5 521.5C556.791 519.102 557.644 517.889 558 515.5C558.691 510.861 559.757 507.612 557.5 503.5C556.369 501.439 554.958 500.844 553.5 499C552.022 497.13 550.806 496.743 550 494.5C549.205 492.287 550.314 489.686 551 489C551.77 488.23 553.395 486.462 556 486.5C558.843 486.541 560.636 486.921 563 488.5C564.955 489.806 565.617 491.098 567 493C568.952 495.685 569.898 497.369 571 500.5C571.928 503.137 572.115 504.731 572.5 507.5C573.226 512.722 571.232 515.883 572.5 521C573.154 523.64 574 533 575.5 527.5C575.685 526.821 579.5 517.5 579.5 517.5C579.5 517.5 581.232 513.328 584 505C586.74 496.756 588.263 491.51 590.03 484C590.343 482.67 590.664 481.269 591 479.768C589.578 480.113 587.93 480.362 586 480.5Z" fill="black"/>
<path d="M548 527.5L566 589.5C579.333 591.833 606.1 596.5 606.5 596.5C606.9 596.5 623.333 589.167 631.5 585.5C631.5 585.5 640.922 542.474 641 514.5C641.032 502.965 639.5 485 639.5 485C639.174 477.495 636 500 636 500C636 500 634.847 508.871 634 514.5C632.78 522.605 631.997 527.091 630 535C627.279 545.776 621.5 562 621.5 562C621.5 562 615.5 579.895 613.5 580C604 580.5 597 579.5 585.5 580.5C581.809 580.821 577.719 579.334 574.5 577.5C568.087 573.846 565.191 570.156 562 563.5C558.785 556.796 557.5 545 557.5 545L556.5 527.5H548Z" fill="black"/>
<path d="M383.5 372L365.5 396V597.5H553L566 589.5L548 527.5L537.5 485.5C537.5 485.5 547.652 469.926 558 468C569.773 465.809 572 481.5 586 480.5C587.93 480.362 589.578 480.113 591 479.768C592.411 479.371 593.553 478.953 594.509 478.5C596.602 477.508 597.805 476.343 599 474.831C599 474.831 600.788 468.263 599.702 463.5C599.702 463.5 596.771 471.146 592.5 473C590.849 473.717 589.8 473.981 588 474C585.344 474.029 583.891 473.157 581.5 472C577.876 470.247 575.569 468.104 572.5 465.5C568.704 462.279 565.5 458.557 564 456.5C562.044 453.818 560 449.5 560 449.5C560 449.5 558.021 444.985 557 442C555.819 438.549 555.183 436.583 554.5 433C553.692 428.763 553.307 426.303 553 422C552.749 418.489 552.5 417 552.5 413.5V404C552.5 398.5 555 393.75 561 390C567 386.25 567.554 386.45 572 384C575.937 381.83 578.5 380.5 582.5 378.5C587.501 375.999 595.5 372.5 595.5 372.5C595.5 372.5 605.495 368.667 612 366.5C628.266 361.083 638.076 360.416 654.5 355.5C669.703 350.949 678.5 348.5 693 342.5C695.892 341.303 699.099 339.443 702.082 337.5C707.977 333.661 713 329.5 713 329.5C713.23 320.883 712.886 318.294 709.5 310C703.789 296.01 700.926 287.866 693 275C683.467 259.525 676.935 251.243 663.5 239C650.09 226.78 641.614 220.288 625 213C602.511 203.136 587.538 201.518 563 202.5C546.544 203.159 521.5 210 521.5 210C521.5 210 504.5 213 485 232C465.5 251 465 257.5 457 267.5C449 277.5 383.5 372 383.5 372Z" fill="black"/>
<path d="M713 329.5C713.23 320.883 712.886 318.294 709.5 310C703.789 296.01 700.926 287.866 693 275C683.467 259.525 676.935 251.243 663.5 239C650.09 226.78 641.614 220.288 625 213C602.511 203.136 587.538 201.518 563 202.5C546.544 203.159 521.5 210 521.5 210C521.5 210 504.5 213 485 232C465.5 251 465 257.5 457 267.5C449 277.5 383.5 372 383.5 372L365.5 396V597.5H553L566 589.5M713 329.5C712.559 346.037 703.173 354.171 693 368M713 329.5C713 329.5 707.977 333.661 702.082 337.5M693 368C684.435 379.644 677.942 385.556 670 398C670 398 664.676 405.987 662 411.5C659.705 416.23 657.333 419.833 656 423.5C654.667 427.167 652 435 652 435C652 435 651.443 436.392 650.771 438M693 368C693 368 699 356 701.5 348.5C704 341 702.082 337.5 702.082 337.5M619.5 450C622.5 447 626.5 444.5 626.5 444.5C626.5 444.5 629.09 442.628 631 442C633.419 441.205 635.014 440.951 637.5 441.5C639.889 442.027 640.558 444.351 643 444.5C645.534 444.655 647.5 444.5 649 442M619.5 450C619.5 450 624.052 445.296 625.5 441.5C627.38 436.571 624 426.5 627.5 430.5C631 434.5 631.997 433.75 636.5 436.5C638.94 437.99 640.919 439.032 643 439.909M619.5 450C618.551 450.949 617.448 451.847 615.5 454M619.5 450C619.5 450 617.337 447.323 614 446C610.218 444.5 605.5 444.5 605.5 444.5L612.868 451.5M619.5 450L624.5 460.5L625.5 472L624 481L623 488.5L621 495L615.5 519.5C615.5 519.5 614.881 520.727 614 521.5C612.828 522.528 614.156 515.02 614.5 513.5C615.632 508.5 615.343 507.455 617 500C618.728 492.225 620.5 487 621 480.5C621.171 478.28 621 476 620 475C619 474 618.223 473.127 616 473C613.948 472.883 612.589 473.527 611 474.831C608.043 477.258 607.5 480.5 607.5 480.5C607.5 480.5 599.5 508.5 599.5 508C599.5 498.577 603.5 486.5 603 481.5M548 527.5L537.5 485.5C537.5 485.5 547.652 469.926 558 468C569.773 465.809 572 481.5 586 480.5C587.93 480.362 589.578 480.113 591 479.768M548 527.5L566 589.5M548 527.5H556.5M566 589.5C579.333 591.833 606.1 596.5 606.5 596.5C606.9 596.5 623.333 589.167 631.5 585.5C631.5 585.5 640.922 542.474 641 514.5C641.032 502.965 639.5 485 639.5 485C639.174 477.495 636 500 636 500C636 500 634.847 508.871 634 514.5C632.78 522.605 631.997 527.091 630 535C627.279 545.776 621.5 562 621.5 562C621.5 562 615.5 579.895 613.5 580C604 580.5 597 579.5 585.5 580.5C581.809 580.821 577.719 579.334 574.5 577.5C568.087 573.846 565.191 570.156 562 563.5C558.785 556.796 557.5 545 557.5 545L556.5 527.5M649 442C646.68 441.304 644.802 440.668 643 439.909M649 442C649.472 441.055 650.168 439.441 650.771 438M643 439.909C643 439.909 646.171 441.221 648 440.5C649.356 439.965 650.771 438 650.771 438M615.5 454L612.868 451.5M615.5 454C613.393 456.329 610.891 459.206 608.917 461.5M612.868 451.5C612.868 451.5 610 458 608.917 461.5M608.917 461.5C606.945 463.791 605.5 465.5 605.5 465.5C602.49 468.878 601.095 472.179 599 474.831M608.917 461.5C606.5 458.5 604.54 457.836 601 457.5C599.24 457.333 596.5 457.5 596.5 457.5C596.5 457.5 598 459.542 599 461.5C599.31 462.107 599.539 462.783 599.702 463.5M599 474.831C599 474.831 600.788 468.263 599.702 463.5M599 474.831C599 474.831 602.732 478.818 603 481.5M599 474.831C597.805 476.343 596.602 477.508 594.509 478.5M599.702 463.5C599.702 463.5 596.771 471.146 592.5 473C590.849 473.717 589.8 473.981 588 474C585.344 474.029 583.891 473.157 581.5 472C577.876 470.247 575.569 468.104 572.5 465.5C568.704 462.279 565.5 458.557 564 456.5C562.044 453.818 560 449.5 560 449.5C560 449.5 558.021 444.985 557 442C555.819 438.549 555.183 436.583 554.5 433C553.692 428.763 553.307 426.303 553 422C552.749 418.489 552.5 417 552.5 413.5M552.5 413.5C552.5 409.964 552.5 409.5 552.5 404M552.5 413.5V404M552.5 404C552.5 398.5 555 393.75 561 390C567 386.25 567.554 386.45 572 384C575.937 381.83 578.5 380.5 582.5 378.5C587.501 375.999 595.5 372.5 595.5 372.5C595.5 372.5 605.495 368.667 612 366.5C628.266 361.083 638.076 360.416 654.5 355.5C669.703 350.949 678.5 348.5 693 342.5C695.892 341.303 699.099 339.443 702.082 337.5M603 481.5C602.275 479.625 600.955 478.47 599 478C597.295 477.59 594.509 478.5 594.509 478.5M591 479.768C590.664 481.269 590.343 482.67 590.03 484M591 479.768C592.411 479.371 593.553 478.953 594.509 478.5M556.5 527.5C556.5 527.5 556.218 523.826 556.5 521.5C556.791 519.102 557.644 517.889 558 515.5C558.691 510.861 559.757 507.612 557.5 503.5C556.369 501.439 554.958 500.844 553.5 499C552.022 497.13 550.806 496.743 550 494.5C549.205 492.287 550.314 489.686 551 489C551.77 488.23 553.395 486.462 556 486.5C558.843 486.541 560.636 486.921 563 488.5C564.955 489.806 565.617 491.098 567 493C568.952 495.685 569.898 497.369 571 500.5C571.928 503.137 572.115 504.731 572.5 507.5C573.226 512.722 571.232 515.883 572.5 521C573.154 523.64 574 533 575.5 527.5C575.685 526.821 579.5 517.5 579.5 517.5C579.5 517.5 581.232 513.328 584 505C586.74 496.756 588.263 491.51 590.03 484M590.03 484C590.03 484 590.958 481.672 592 480.5C592.833 479.564 594.509 478.5 594.509 478.5" stroke="black" stroke-width="4"/>
<path d="M606.5 344C599.949 347.144 590.5 353.5 590.5 353.5C590.5 353.5 593.859 353.668 596 353.5C598.368 353.314 599.68 353.011 602 352.5C604.777 351.889 605.667 351.833 609 350.5C612.333 349.167 616.775 347.421 620 346.5C623.5 345.5 628 344.5 631.5 343.5C631.5 343.5 638.422 341.196 643 339.5C647.834 337.709 650.618 336.453 655.5 334.5L668 329.5C672.882 327.547 674.492 327.205 679 324.5C681.5 323 683.389 322.207 685.5 321C689 319 688.5 319.5 691 318C692.724 316.966 696.5 313.5 696.5 313.5C696.5 313.5 686.119 316.608 680.5 318.5C675.583 320.155 672.929 321.38 668 323C662.776 324.717 659.738 325.328 654.5 327C647.205 329.328 643.253 331.044 636 333.5C628.221 336.134 623.654 337.024 616 340C612.248 341.459 610.129 342.258 606.5 344Z" fill="white" stroke="black"/>
<path d="M549.5 288L375 458.5L378.5 460L390 451C390 451 400.5 445 406 442.5C411.5 440 418 434.5 430.5 434.5C443 434.5 446 437 451.5 434.5C457 432 459.5 427 467 415.5C474.5 404 509.5 348 509.5 348C509.5 348 528.5 322.5 546.5 298.5C549.059 295.088 549.5 288 549.5 288Z" fill="white" stroke="black" stroke-width="2"/>
<path d="M491 277.5L402 400C402 400 419.864 386.911 429.5 375.5L430.124 374.761C448.634 352.843 454.715 345.642 474 313.5C483.106 298.324 491 277.5 491 277.5Z" fill="white" stroke="black" stroke-width="2"/>
<path d="M653.5 241.5C662.8 248.888 674.5 263.5 674.5 263.5C674.5 263.5 667.863 263.07 664 264.5C662.362 265.106 658.668 267.702 657.5 269C656.332 270.298 654.5 272 651 276.5C647.5 281 646.898 282.417 644 286C640.003 290.943 637.215 293.241 633 298C625.094 306.928 619.908 311.573 612 320.5C598.908 335.28 591.401 343.164 578 357.5C567.53 368.7 561.855 375.173 551 386C542.59 394.388 537.964 399.208 529 407L528.602 407.346C517.499 416.997 511.074 422.581 498.5 430.5C489.85 435.948 475.5 443 475.5 443C478.167 440.833 484.5 435.5 484.5 435.5C484.5 435.5 498 423 509 412C520 401 524.134 396.598 533.5 387C539.962 380.379 543.598 376.985 550 370.5C561.06 359.297 567.012 352.774 578 341.5C591.781 327.36 599.219 318.64 613 304.5C623.988 293.226 629.5 287.5 637.5 279C640.324 276 632 277.5 628 278.5C625.049 279.238 625.191 278.909 617.5 282C609.634 285.161 606.798 286.435 600 291.5C589.572 299.271 585.49 307.18 576.5 317.5C568.946 326.172 565.001 331.282 557.5 340C550.731 347.867 546.715 352.087 540 360C531.2 370.371 526.944 376.753 518 387C511.911 393.976 508.35 397.76 502 404.5C495.845 411.033 492.188 414.498 486 421C480.285 427.004 477.181 430.464 471.5 436.5C468.187 440.021 463 445.5 463 445.5L458 443C458 443 460.831 437.385 463 434C467.707 426.653 477.5 417 477.5 417L491 399.5L502 387L520 365.5L544.5 339L575 305.5L600 277.5C600 277.5 606.646 268.867 612 264.5C617.631 259.907 629.751 253.017 622.5 253.5C615 254 615.456 254.19 611 255C606.061 255.898 603.3 256.53 598.5 258C593.715 259.466 591.025 260.362 586.5 262.5C582.23 264.517 579.302 265.552 575 267.5C569.769 269.869 562 273 562 273C563.333 270.667 567.5 265 567.5 265C567.5 265 571.74 259.389 575 256C578.734 252.118 580.865 249.953 585 246.5C590.488 241.917 605 236 598.5 235.5C594.606 235.2 593.394 235.209 589.5 235.5C584.762 235.854 582.155 236.048 577.5 237C571.979 238.129 569.345 239.212 564 241C558.359 242.887 550 247.5 550 247.5L534.5 256C534.5 256 537.379 253.669 538.5 252C540.58 248.903 545 243.5 545 243.5C545 243.5 549.086 238.787 553 235.5C557.438 231.773 560.284 229.403 565.5 227C565.5 227 580.5 222 575 222H565.5C562.571 222 559.988 222.025 556.5 222.5C551.714 223.152 548.5 223.5 544 225L524.5 231.5C524.5 231.5 534.923 224.195 541.5 221.5C548.077 218.805 559 216.5 559 216.5C559 216.5 573.579 213.806 583 214C590.87 214.162 595.36 214.608 603 216.5C611.342 218.566 615.681 220.434 623.5 224C635.752 229.588 642.956 233.124 653.5 241.5Z" fill="white" stroke="black" stroke-width="2"/>
<path d="M493.5 444C485.264 447.876 479.5 451 476 456.5C475.463 457.344 487.899 467.255 495 475C503.024 483.751 506.302 489.697 513 499.5C520.671 510.728 524.635 517.261 531.5 529C536.794 538.054 544.5 552.5 544.5 552.5L548 551.5L533.5 519.5C533.5 519.5 527.109 506.002 528 497C528.566 491.285 530.033 488.186 532.5 483C534.363 479.084 538.25 473.5 538.25 473.5C538.25 473.5 541.5 468 542.5 464.5C543.044 462.595 541.66 459.5 541.66 459.5L524.5 426.5C524.5 426.5 517.192 432.59 508.5 437.5C501.5 442.5 502 440 493.5 444Z" fill="white" stroke="black"/>
<path fill-rule="evenodd" clip-rule="evenodd" d="M620.5 372L627 384.5C627 384.5 628.461 387.385 629 389.5C630.135 393.954 627 401 627 401C627 401 631.107 397.295 634.5 396C638.518 394.467 642.29 394.878 646.5 394C650.37 393.192 651.372 393.071 655 391.5C658.606 389.939 660.802 389.284 664 387C667.371 384.592 668.926 382.745 671.5 379.5C672.107 378.735 671.5 378 671.5 378L658.5 369.5C658.5 369.5 657.079 372.611 654.5 374C650.853 375.964 647.596 374.617 643.5 374C638.612 373.263 635.931 372.355 631 372C626.91 371.705 620.5 372 620.5 372ZM641.5 388C636.298 384.098 633 377 633 377C633 377 636.17 378.187 638.5 378.5C640.268 378.737 641.44 379.218 643 379.5C644.053 379.69 646.054 380.103 647 380.5C649.348 381.484 650 382.454 650 385C650 387.5 649.381 388.089 647.5 389.5C645.5 391 643.5 389.5 641.5 388Z" fill="black"/>
<path fill-rule="evenodd" clip-rule="evenodd" d="M620.5 372L627 384.5C627 384.5 628.461 387.385 629 389.5C630.135 393.954 627 401 627 401C627 401 631.107 397.295 634.5 396C638.518 394.467 642.29 394.878 646.5 394C650.37 393.192 651.372 393.071 655 391.5C658.606 389.939 660.802 389.284 664 387C667.371 384.592 668.926 382.745 671.5 379.5C672.107 378.735 671.5 378 671.5 378L658.5 369.5C658.5 369.5 657.079 372.611 654.5 374C650.853 375.964 647.596 374.617 643.5 374C638.612 373.263 635.931 372.355 631 372C626.91 371.705 620.5 372 620.5 372ZM641.5 388C636.298 384.098 633 377 633 377C633 377 636.17 378.187 638.5 378.5C640.268 378.737 641.44 379.218 643 379.5C644.053 379.69 646.054 380.103 647 380.5C649.348 381.484 650 382.454 650 385C650 387.5 649.381 388.089 647.5 389.5C645.5 391 643.5 389.5 641.5 388Z" stroke="black"/>
<path d="M684.5 306.5L611.5 331C611.5 331 622.926 330.929 629.5 330C637.632 328.851 642.736 326.678 650.5 324C658.559 321.22 662 320 669.5 316.5C676.125 313.408 684.5 306.5 684.5 306.5Z" fill="white" stroke="black"/>
<path d="M457 452.5C448.778 447.515 434.5 442.5 434.5 442.5V445C434.5 445 441.295 449.443 445.5 452.5C451.346 456.75 454.597 459.2 460 464C467.123 470.328 480.021 483.85 472.5 478C468 474.5 469.689 474.986 464.5 471.5C457.902 467.068 453.611 465.551 446.5 462C439.545 458.527 432.772 454.174 425 454C422.844 453.952 423 454 423 454C423 454 427.555 456.269 430.5 458C436.681 461.633 440.473 463.618 446.5 467.5C452.607 471.433 455.854 473.929 461.5 478.5C468.269 483.979 471.581 487.615 478 493.5C483.093 498.169 486.839 501.647 490.5 505.5C499.957 515.455 500.422 516.129 505.432 523.401L505.5 523.5C513.861 535.635 517.47 542.717 524 556C529.759 567.714 536.5 587 536.5 587C536.5 587 541.352 588.055 544.5 588C547.261 587.952 551.5 587 551.5 587C551.5 587 545.514 573.541 541.5 565C535.855 552.987 532.93 546.112 526.5 534.5C519.702 522.223 515.789 515.324 507.5 504C498.831 492.157 483 475.5 483 475.5C483 475.5 468.592 459.528 457 452.5Z" fill="white"/>
<path d="M431.5 476C423.276 473.699 409.5 472.5 409.5 472.5L412.5 474C412.5 474 426.447 480.234 435.5 485C441.93 488.385 445 489.937 451.5 494C457.24 497.588 460.664 499.834 466 504C472.857 509.354 476.597 513.111 483 519C489.111 524.62 495.5 531 495.5 531C495.5 531 492.51 522.744 488 516.5C482.416 508.77 478.468 505.01 471.5 498.5C464.904 492.338 461.311 489.524 453.5 485C444.5 479.787 440.37 478.482 431.5 476Z" fill="white"/>
<path d="M412 495C401.5 490 389.5 486 389.5 486C389.5 486 397.548 486.087 403 486.5C407.323 486.827 409.765 487.074 414 488C419.007 489.095 422.251 490.071 427 492C431.854 493.972 439 497.5 439 497.5C439 497.5 447.996 502.424 453.5 506C458.316 509.129 461.208 511.185 465.5 515C474.5 523 476.413 525.86 483 533.5C489.074 540.544 492.928 544.204 498 552C501.527 557.421 503.611 560.49 506 566.5C508.24 572.134 510 581.5 510 581.5C510 581.5 504.245 573.855 500.5 569L476.5 539C476.5 539 482.054 546.881 484.5 552.5C485.905 555.728 485.434 558.15 487.5 561C489.29 563.469 491.34 564.441 493 567C494.96 570.02 498 583 492 573C488.95 567.916 487 566 487 566C487 566 481.558 559.475 479 555C477.917 553.105 477.552 552.413 476.5 550.5C473.001 544.134 470.324 540.931 465.5 535.5C460.545 529.922 457.133 527.392 451.5 522.5C444.155 516.122 439.978 511.566 432 506C424.666 500.884 422.5 500 412 495Z" fill="white"/>
<path d="M505.5 523.5C513.861 535.635 517.47 542.717 524 556C529.759 567.714 536.5 587 536.5 587C536.5 587 541.352 588.055 544.5 588C547.261 587.952 551.5 587 551.5 587C551.5 587 545.514 573.541 541.5 565C535.855 552.987 532.93 546.112 526.5 534.5C519.702 522.223 515.789 515.324 507.5 504C498.831 492.157 483 475.5 483 475.5C483 475.5 468.592 459.528 457 452.5C448.778 447.515 434.5 442.5 434.5 442.5V445C434.5 445 441.295 449.443 445.5 452.5C451.346 456.75 454.597 459.2 460 464C467.123 470.328 480.021 483.85 472.5 478C468 474.5 469.689 474.986 464.5 471.5C457.902 467.068 453.611 465.551 446.5 462C439.545 458.527 432.772 454.174 425 454C422.844 453.952 423 454 423 454C423 454 427.555 456.269 430.5 458C436.681 461.633 440.473 463.618 446.5 467.5C452.607 471.433 455.854 473.929 461.5 478.5C468.269 483.979 471.581 487.615 478 493.5C483.093 498.169 486.839 501.647 490.5 505.5C499.957 515.455 500.422 516.129 505.432 523.401M505.5 523.5L505.432 523.401M505.5 523.5C505.477 523.467 505.454 523.434 505.432 523.401M409.5 472.5C409.5 472.5 423.276 473.699 431.5 476C440.37 478.482 444.5 479.787 453.5 485C461.311 489.524 464.904 492.338 471.5 498.5C478.468 505.01 482.416 508.77 488 516.5C492.51 522.744 495.5 531 495.5 531C495.5 531 489.111 524.62 483 519C476.597 513.111 472.857 509.354 466 504C460.664 499.834 457.24 497.588 451.5 494C445 489.937 441.93 488.385 435.5 485C426.447 480.234 412.5 474 412.5 474L409.5 472.5ZM389.5 486C389.5 486 401.5 490 412 495C422.5 500 424.666 500.884 432 506C439.978 511.566 444.155 516.122 451.5 522.5C457.133 527.392 460.545 529.922 465.5 535.5C470.324 540.931 473.001 544.134 476.5 550.5C477.552 552.413 477.917 553.105 479 555C481.558 559.475 487 566 487 566C487 566 488.95 567.916 492 573C498 583 494.96 570.02 493 567C491.34 564.441 489.29 563.469 487.5 561C485.434 558.15 485.905 555.728 484.5 552.5C482.054 546.881 476.5 539 476.5 539L500.5 569C504.245 573.855 510 581.5 510 581.5C510 581.5 508.24 572.134 506 566.5C503.611 560.49 501.527 557.421 498 552C492.928 544.204 489.074 540.544 483 533.5C476.413 525.86 474.5 523 465.5 515C461.208 511.185 458.316 509.129 453.5 506C447.996 502.424 439 497.5 439 497.5C439 497.5 431.854 493.972 427 492C422.251 490.071 419.007 489.095 414 488C409.765 487.074 407.323 486.827 403 486.5C397.548 486.087 389.5 486 389.5 486Z" stroke="black"/>
<path d="M276 477.5L366 477.5" stroke="#E03D26" stroke-width="5" stroke-linecap="round"/>
<path d="M714 476L804 476" stroke="#E03D26" stroke-width="5" stroke-linecap="round"/>
<defs>
<linearGradient id="paint0_linear_17_2" x1="540.5" y1="864" x2="540.5" y2="944" gradientUnits="userSpaceOnUse">
<stop offset="0.00503607" stop-color="#E03D26" stop-opacity="0.43"/>
<stop offset="0.635" stop-color="#E03D26"/>
</linearGradient>
<linearGradient id="paint1_linear_17_2" x1="539" y1="699" x2="539" y2="856" gradientUnits="userSpaceOnUse">
<stop offset="0.73" stop-color="#E03D26" stop-opacity="0.89"/>
<stop offset="1" stop-color="#E19787"/>
</linearGradient>
</defs>
</svg>
